<svg width="765" height="515" viewBox="0 0 765 515" fill="none" xmlns="http://www.w3.org/2000/svg">
<path fill-rule="evenodd" clip-rule="evenodd" d="M371.19 1.85282C457.538 12.5824 486.785 81.2923 551.982 119.057C606.989 150.918 686.786 163.568 722.317 205.237C761.81 251.553 776.097 306.995 755.841 358.135C734.813 411.222 683.031 459.811 610.111 488.519C539.932 516.147 453.586 508.629 371.19 509.564C287.023 510.518 190.985 528.257 126.031 494.01C61.3727 459.918 78.3268 395.343 56.4429 343.609C36.0425 295.381 -10.9337 250.787 2.31919 201.55C16.6343 148.367 66.5632 101.607 130.967 66.7408C198.976 29.9221 283.722 -9.01609 371.19 1.85282Z" fill="#76B8D4"/>
</svg>
