<svg width="600" height="428" viewBox="0 0 600 428" fill="none" xmlns="http://www.w3.org/2000/svg">
<path fill-rule="evenodd" clip-rule="evenodd" d="M320.94 0.0241031C390.415 -0.22085 470.709 0.674068 517.424 38.4164C563.178 75.3812 532.3 134.204 547.312 182.913C560.269 224.954 607.29 260.536 599.034 303.21C590.107 349.357 557.534 397.323 501.571 419.36C447.116 440.803 382.578 415.982 320.94 412.72C265.25 409.772 207.474 420.591 158.293 401.193C105.205 380.253 68.7975 343.163 43.1321 303.142C14.4831 258.468 -10.5631 209.559 4.54434 161.446C20.3038 111.257 68.1984 69.1959 125.822 39.797C182.637 10.8104 251.746 0.268062 320.94 0.0241031Z" fill="#A3C998"/>
</svg>
