<svg width="971" height="676" viewBox="0 0 971 676" fill="none" xmlns="http://www.w3.org/2000/svg">
<path fill-rule="evenodd" clip-rule="evenodd" d="M484.665 0.146589C577.03 2.12221 651.85 33.875 734.95 64.1639C830.14 98.8596 945.201 141.46 965.382 219.345C985.647 297.555 947.408 396.172 909.33 470.556C874.345 538.899 825.92 587.188 752.41 635.379C678.174 684.046 563.61 681.136 466.849 666.839C381.032 654.159 285.33 626.657 215.151 587.524C146.016 548.973 105.722 491.606 64.068 435.066C16.7981 370.903 -15.6268 300.123 7.79977 228.962C32.0434 155.318 98.9556 89.3133 187.397 52.4522C271.06 17.5827 388.977 -1.90007 484.665 0.146589Z" fill="#D9A04F"/>
</svg>
