<svg width="1551" height="585" viewBox="0 0 1551 585" fill="none" xmlns="http://www.w3.org/2000/svg">
<path fill-rule="evenodd" clip-rule="evenodd" d="M320.94 147.024C390.415 146.779 470.709 147.674 517.424 185.416C563.178 222.381 532.3 281.204 547.312 329.913C560.269 371.954 607.29 407.536 599.034 450.21C590.107 496.357 557.534 544.323 501.571 566.36C447.116 587.803 382.578 562.982 320.94 559.72C265.25 556.772 207.474 567.591 158.293 548.193C105.205 527.253 68.7975 490.163 43.1321 450.142C14.4831 405.468 -10.5631 356.559 4.54434 308.446C20.3038 258.257 68.1984 216.196 125.822 186.797C182.637 157.81 251.746 147.268 320.94 147.024Z" fill="#A3C998"/>
<path fill-rule="evenodd" clip-rule="evenodd" d="M742.782 1.91328C809.495 12.993 832.091 83.9448 882.463 122.941C924.961 155.843 986.612 168.905 1014.06 211.934C1044.58 259.762 1055.61 317.012 1039.96 369.821C1023.72 424.64 983.711 474.815 927.373 504.459C873.153 532.988 806.442 525.225 742.782 526.191C677.754 527.176 603.555 545.494 553.372 510.129C503.417 474.924 516.515 408.243 499.608 354.821C483.847 305.02 447.553 258.97 457.792 208.127C468.852 153.208 507.427 104.923 557.185 68.9185C609.73 30.8985 675.204 -9.31028 742.782 1.91328Z" fill="#76B8D4"/>
<path fill-rule="evenodd" clip-rule="evenodd" d="M1234.34 161.066C1292.72 162.377 1351.27 158.57 1403.79 178.674C1463.95 201.703 1536.68 229.979 1549.43 281.675C1562.24 333.586 1487.62 371.52 1463.55 420.892C1441.44 466.255 1461.29 525.829 1414.83 557.815C1367.91 590.118 1295.5 588.187 1234.34 578.697C1180.1 570.281 1143.43 534.795 1099.08 508.821C1055.38 483.233 1003.43 465.589 977.105 428.06C947.229 385.473 929.401 335.291 944.207 288.058C959.53 239.177 1001.82 195.367 1057.72 170.9C1110.6 147.756 1173.86 159.708 1234.34 161.066Z" fill="#D9A04F"/>
</svg>
