<svg width="34" height="34" viewBox="0 0 34 34" fill="none" xmlns="http://www.w3.org/2000/svg">
<path d="M21.25 22.6665L15.5833 28.3332H26.9167C28.475 28.3332 29.75 27.0582 29.75 25.4999C29.75 23.9415 28.475 22.6665 26.9167 22.6665H21.25ZM17.085 10.1857L4.66083 22.6099C4.40583 22.8649 4.25 23.2332 4.25 23.6015V26.9165C4.25 27.6957 4.8875 28.3332 5.66667 28.3332H8.98167C9.36417 28.3332 9.71833 28.1774 9.9875 27.9224L22.4117 15.4982L17.085 10.1857ZM26.5058 11.3899C26.6372 11.2588 26.7414 11.1031 26.8124 10.9318C26.8835 10.7604 26.9201 10.5767 26.9201 10.3911C26.9201 10.2056 26.8835 10.0219 26.8124 9.8505C26.7414 9.67912 26.6372 9.52344 26.5058 9.39238L23.1908 6.07738C23.0598 5.94605 22.9041 5.84186 22.7327 5.77077C22.5613 5.69968 22.3776 5.66309 22.1921 5.66309C22.0065 5.66309 21.8228 5.69968 21.6514 5.77077C21.4801 5.84186 21.3244 5.94605 21.1933 6.07738L18.6008 8.66988L23.9133 13.9824L26.5058 11.3899Z" fill="black"/>
</svg>
