<svg width="55" height="55" viewBox="0 0 55 55" fill="none" xmlns="http://www.w3.org/2000/svg">
<path d="M21.026 7.3335C22.1719 7.3335 26.7552 17.646 26.7552 18.7918C26.7552 21.0835 23.3177 23.3752 22.1719 25.6668C21.026 27.9585 23.3177 30.2502 25.6094 32.5418C26.5031 33.4356 30.1927 37.1252 32.4844 35.9793C34.776 34.8335 37.0677 31.396 39.3594 31.396C40.5052 31.396 50.8177 35.9793 50.8177 37.1252C50.8177 41.7085 47.3802 45.146 43.9427 46.2918C40.5052 47.4377 38.2135 47.4377 33.6302 46.2918C29.0469 45.146 25.6094 44.0002 19.8802 38.271C14.151 32.5418 13.0052 29.1043 11.8594 24.521C10.7135 19.9377 10.7135 17.646 11.8594 14.2085C13.0052 10.771 16.4427 7.3335 21.026 7.3335Z" fill="white" stroke="white" stroke-width="2" stroke-linecap="round" stroke-linejoin="round"/>
</svg>
