<svg width="29" height="25" viewBox="0 0 29 25" fill="none" xmlns="http://www.w3.org/2000/svg">
<path d="M12.6875 25C12.6875 25 10.875 25 10.875 22.9167C10.875 20.8333 12.6875 14.5833 19.9375 14.5833C27.1875 14.5833 29 20.8333 29 22.9167C29 25 27.1875 25 27.1875 25H12.6875ZM19.9375 12.5C21.3796 12.5 22.7627 11.8415 23.7824 10.6694C24.8021 9.49731 25.375 7.9076 25.375 6.25C25.375 4.5924 24.8021 3.00269 23.7824 1.83058C22.7627 0.65848 21.3796 0 19.9375 0C18.4954 0 17.1123 0.65848 16.0926 1.83058C15.0729 3.00269 14.5 4.5924 14.5 6.25C14.5 7.9076 15.0729 9.49731 16.0926 10.6694C17.1123 11.8415 18.4954 12.5 19.9375 12.5ZM9.454 25C9.18543 24.3496 9.05144 23.6365 9.0625 22.9167C9.0625 20.0938 10.295 17.1875 12.5715 15.1667C11.4354 14.7634 10.2515 14.5666 9.0625 14.5833C1.8125 14.5833 0 20.8333 0 22.9167C0 25 1.8125 25 1.8125 25H9.454ZM8.15625 12.5C9.35801 12.5 10.5106 11.9513 11.3603 10.9745C12.2101 9.99776 12.6875 8.673 12.6875 7.29167C12.6875 5.91033 12.2101 4.58557 11.3603 3.60882C10.5106 2.63207 9.35801 2.08333 8.15625 2.08333C6.95449 2.08333 5.80195 2.63207 4.95217 3.60882C4.1024 4.58557 3.625 5.91033 3.625 7.29167C3.625 8.673 4.1024 9.99776 4.95217 10.9745C5.80195 11.9513 6.95449 12.5 8.15625 12.5Z" fill="black"/>
</svg>
