<svg width="37" height="37" viewBox="0 0 37 37" fill="none" xmlns="http://www.w3.org/2000/svg">
<path d="M12.4671 6.521C11.9194 6.52067 11.3781 6.63794 10.8796 6.8649C10.3812 7.09185 9.93736 7.42319 9.57806 7.8365C6.84956 10.571 6.04856 13.6475 6.72956 16.742C7.38956 19.7345 9.39656 22.5815 11.9136 25.1C14.4336 27.6185 17.2791 29.627 20.2686 30.2885C23.3616 30.9725 26.4411 30.179 29.1786 27.461C29.5934 27.1012 29.9261 26.6565 30.1542 26.157C30.3823 25.6574 30.5004 25.1147 30.5005 24.5656C30.5006 24.0165 30.3828 23.4737 30.155 22.974C29.9272 22.4744 29.5947 22.0295 29.1801 21.6695L27.3651 19.8545C26.6085 19.0988 25.5829 18.6743 24.5136 18.6743C23.4442 18.6743 22.4186 19.0988 21.6621 19.8545L20.7366 20.7815C20.6243 20.8938 20.491 20.9829 20.3443 21.0437C20.1976 21.1044 20.0403 21.1357 19.8816 21.1357C19.7228 21.1357 19.5655 21.1044 19.4188 21.0437C19.2721 20.9829 19.1388 20.8938 19.0266 20.7815L16.2456 17.999C16.0191 17.7721 15.892 17.4646 15.892 17.144C15.892 16.8234 16.0191 16.5159 16.2456 16.289L17.1726 15.359C17.9287 14.6024 18.3535 13.5764 18.3535 12.5067C18.3535 11.4371 17.9287 10.4111 17.1726 9.6545L15.3576 7.838C14.9976 7.42498 14.5534 7.09377 14.0549 6.86662C13.5563 6.63946 13.0149 6.52162 12.4671 6.521Z" fill="black"/>
</svg>
