<svg width="33" height="34" viewBox="0 0 33 34" fill="none" xmlns="http://www.w3.org/2000/svg">
<path fill-rule="evenodd" clip-rule="evenodd" d="M9.22904 5.62415C14.0667 5.17867 18.9333 5.17867 23.771 5.62415L25.8583 5.81682C26.8687 5.90978 27.8192 6.35101 28.5563 7.06923C29.2933 7.78745 29.7737 8.74071 29.92 9.77499C30.599 14.5663 30.599 19.4337 29.92 24.225C29.7735 25.259 29.2929 26.2119 28.5559 26.9299C27.8189 27.6478 26.8685 28.0888 25.8583 28.1817L23.771 28.3744C18.9333 28.8199 14.0667 28.8199 9.22904 28.3744L7.14179 28.1817C6.13155 28.0888 5.18119 27.6478 4.4442 26.9299C3.70721 26.2119 3.22662 25.259 3.08004 24.225C2.40105 19.4337 2.40105 14.5663 3.08004 9.77499C3.22633 8.74071 3.7068 7.78745 4.44382 7.06923C5.18083 6.35101 6.13135 5.90978 7.14179 5.81682L9.22904 5.62415ZM8.05204 9.68999C7.89496 9.60271 7.71857 9.55892 7.54014 9.56291C7.36172 9.56691 7.18735 9.61854 7.03409 9.71277C6.88083 9.807 6.75393 9.94059 6.6658 10.1005C6.57767 10.2604 6.53132 10.4411 6.53129 10.625V24.0833C6.53129 24.3651 6.63994 24.6354 6.83334 24.8346C7.02673 25.0339 7.28904 25.1458 7.56254 25.1458C7.83605 25.1458 8.09835 25.0339 8.29174 24.8346C8.48514 24.6354 8.59379 24.3651 8.59379 24.0833V12.4043L16.0105 16.5183C16.3158 16.6883 16.6843 16.6883 16.9895 16.5183L24.4063 12.4043V24.0833C24.4063 24.3651 24.5149 24.6354 24.7083 24.8346C24.9017 25.0339 25.164 25.1458 25.4375 25.1458C25.711 25.1458 25.9733 25.0339 26.1667 24.8346C26.3601 24.6354 26.4688 24.3651 26.4688 24.0833V10.625C26.4688 10.4411 26.4224 10.2604 26.3343 10.1005C26.2462 9.94059 26.1192 9.807 25.966 9.71277C25.8127 9.61854 25.6384 9.56691 25.4599 9.56291C25.2815 9.55892 25.1051 9.60271 24.948 9.68999L16.5 14.3763L8.05204 9.68999Z" fill="black"/>
</svg>
