<svg width="46" height="46" viewBox="0 0 46 46" fill="none" xmlns="http://www.w3.org/2000/svg">
<path d="M9.87323 38.8349H35.5439C39.472 38.8349 41.4453 36.7955 41.4453 32.7551V8.80491C41.4453 4.76453 39.472 2.7251 35.5439 2.7251H9.87323C5.96442 2.7251 3.97192 4.74529 3.97192 8.80491V32.7559C3.97192 36.8156 5.96442 38.8349 9.87323 38.8349ZM9.61024 35.6783C7.93767 35.6783 6.99795 34.756 6.99795 32.9317V14.4362C6.99795 12.6319 7.93767 11.6904 9.61024 11.6904H35.7885C37.4603 11.6904 38.4184 12.6319 38.4184 14.4362V32.9317C38.4184 34.756 37.4603 35.6766 35.7885 35.6766L9.61024 35.6783ZM19.0251 18.7318H20.134C20.7915 18.7318 21.0176 18.5351 21.0176 17.8489V16.6915C21.0176 16.0053 20.7923 15.7894 20.134 15.7894H19.0251C18.3676 15.7894 18.1607 16.0053 18.1607 16.6915V17.8489C18.1607 18.5351 18.3676 18.7318 19.0251 18.7318ZM25.2832 18.7318H26.3737C27.0496 18.7318 27.2564 18.5351 27.2564 17.8489V16.6915C27.2564 16.0053 27.0496 15.7894 26.3729 15.7894H25.2832C24.6257 15.7894 24.4004 16.0053 24.4004 16.6915V17.8489C24.4004 18.5351 24.6249 18.7318 25.2832 18.7318ZM31.5221 18.7318H32.631C33.2885 18.7318 33.5146 18.5351 33.5146 17.8489V16.6915C33.5146 16.0053 33.2885 15.7894 32.631 15.7894H31.5221C30.8646 15.7894 30.6393 16.0053 30.6393 16.6915V17.8489C30.6393 18.5351 30.8646 18.7318 31.5221 18.7318ZM12.7862 25.1455H13.8951C14.5526 25.1455 14.7787 24.9488 14.7787 24.2626V23.1052C14.7787 22.419 14.5526 22.2232 13.8951 22.2232H12.7862C12.1287 22.2232 11.9034 22.419 11.9034 23.1052V24.2626C11.9034 24.9488 12.1279 25.1455 12.7862 25.1455ZM19.0251 25.1455H20.134C20.7915 25.1455 21.0176 24.9488 21.0176 24.2626V23.1052C21.0176 22.419 20.7923 22.2232 20.134 22.2232H19.0251C18.3676 22.2232 18.1607 22.419 18.1607 23.1052V24.2626C18.1607 24.9488 18.3676 25.1455 19.0251 25.1455ZM25.2832 25.1455H26.3737C27.0496 25.1455 27.2564 24.9488 27.2564 24.2626V23.1052C27.2564 22.419 27.0496 22.2232 26.3729 22.2232H25.2832C24.6257 22.2232 24.4004 22.419 24.4004 23.1052V24.2626C24.4004 24.9488 24.6249 25.1455 25.2832 25.1455ZM31.5221 25.1455H32.631C33.2885 25.1455 33.5146 24.9488 33.5146 24.2626V23.1052C33.5146 22.419 33.2885 22.2232 32.631 22.2232H31.5221C30.8646 22.2232 30.6393 22.419 30.6393 23.1052V24.2626C30.6393 24.9488 30.8646 25.1455 31.5221 25.1455ZM12.7862 31.5785H13.8951C14.5526 31.5785 14.7787 31.3626 14.7787 30.6763V29.519C14.7787 28.8327 14.5526 28.6369 13.8951 28.6369H12.7862C12.1287 28.6369 11.9034 28.8327 11.9034 29.519V30.6763C11.9034 31.3626 12.1279 31.5785 12.7862 31.5785ZM19.0251 31.5785H20.134C20.7915 31.5785 21.0176 31.3626 21.0176 30.6763V29.519C21.0176 28.8327 20.7923 28.6369 20.134 28.6369H19.0251C18.3676 28.6369 18.1607 28.8327 18.1607 29.519V30.6763C18.1607 31.3626 18.3676 31.5785 19.0251 31.5785ZM25.2832 31.5785H26.3737C27.0496 31.5785 27.2564 31.3626 27.2564 30.6763V29.519C27.2564 28.8327 27.0496 28.6369 26.3729 28.6369H25.2832C24.6257 28.6369 24.4004 28.8327 24.4004 29.519V30.6763C24.4004 31.3626 24.6249 31.5785 25.2832 31.5785Z" fill="white"/>
</svg>
