<svg width="46" height="46" viewBox="0 0 46 46" fill="none" xmlns="http://www.w3.org/2000/svg">
<path d="M15.3887 3.76221H31.1893C37.2086 3.76221 42.0993 8.65287 42.0993 14.6722V30.4728C42.0993 33.3663 40.9498 36.1413 38.9038 38.1873C36.8578 40.2333 34.0828 41.3827 31.1893 41.3827H15.3887C9.36943 41.3827 4.47876 36.4921 4.47876 30.4728V14.6722C4.47876 11.7787 5.6282 9.00367 7.67421 6.95766C9.72022 4.91165 12.4952 3.76221 15.3887 3.76221ZM15.0125 7.52426C13.2165 7.52426 11.4941 8.2377 10.2242 9.50764C8.95426 10.7776 8.24081 12.5 8.24081 14.296V30.849C8.24081 34.5922 11.2693 37.6207 15.0125 37.6207H31.5655C33.3615 37.6207 35.0839 36.9072 36.3538 35.6373C37.6238 34.3673 38.3372 32.6449 38.3372 30.849V14.296C38.3372 10.5527 35.3088 7.52426 31.5655 7.52426H15.0125ZM33.1644 10.3458C33.788 10.3458 34.3861 10.5935 34.827 11.0345C35.268 11.4754 35.5157 12.0735 35.5157 12.6971C35.5157 13.3207 35.268 13.9187 34.827 14.3597C34.3861 14.8006 33.788 15.0484 33.1644 15.0484C32.5408 15.0484 31.9427 14.8006 31.5018 14.3597C31.0608 13.9187 30.8131 13.3207 30.8131 12.6971C30.8131 12.0735 31.0608 11.4754 31.5018 11.0345C31.9427 10.5935 32.5408 10.3458 33.1644 10.3458ZM23.289 13.1673C25.7834 13.1673 28.1756 14.1582 29.9394 15.922C31.7033 17.6858 32.6941 20.0781 32.6941 22.5725C32.6941 25.0669 31.7033 27.4591 29.9394 29.2229C28.1756 30.9867 25.7834 31.9776 23.289 31.9776C20.7946 31.9776 18.4024 30.9867 16.6386 29.2229C14.8748 27.4591 13.8839 25.0669 13.8839 22.5725C13.8839 20.0781 14.8748 17.6858 16.6386 15.922C18.4024 14.1582 20.7946 13.1673 23.289 13.1673ZM23.289 16.9294C21.7924 16.9294 20.357 17.5239 19.2988 18.5822C18.2405 19.6405 17.6459 21.0758 17.6459 22.5725C17.6459 24.0691 18.2405 25.5044 19.2988 26.5627C20.357 27.621 21.7924 28.2155 23.289 28.2155C24.7857 28.2155 26.221 27.621 27.2793 26.5627C28.3376 25.5044 28.9321 24.0691 28.9321 22.5725C28.9321 21.0758 28.3376 19.6405 27.2793 18.5822C26.221 17.5239 24.7857 16.9294 23.289 16.9294Z" fill="white"/>
</svg>
