<svg width="31" height="31" viewBox="0 0 31 31" fill="none" xmlns="http://www.w3.org/2000/svg">
<g clip-path="url(#clip0_352_1401)">
<path d="M17.7118 3.03613C24.6991 3.03613 30.3631 8.7001 30.3631 15.6874C30.3631 22.6747 24.6991 28.3387 17.7118 28.3387C10.7245 28.3387 5.06055 22.6747 5.06055 15.6874C5.06055 8.7001 10.7245 3.03613 17.7118 3.03613ZM17.7118 8.09664C17.3763 8.09664 17.0545 8.22993 16.8172 8.46718C16.58 8.70444 16.4467 9.02623 16.4467 9.36176V15.6874C16.4468 16.0229 16.5801 16.3446 16.8174 16.5818L20.6127 20.3772C20.8513 20.6077 21.1709 20.7352 21.5026 20.7323C21.8343 20.7294 22.1517 20.5964 22.3862 20.3618C22.6208 20.1272 22.7538 19.8099 22.7567 19.4782C22.7596 19.1465 22.6321 18.8269 22.4016 18.5883L18.9769 15.1636V9.36176C18.9769 9.02623 18.8436 8.70444 18.6064 8.46718C18.3691 8.22993 18.0473 8.09664 17.7118 8.09664Z" fill="black"/>
</g>
<defs>
<clipPath id="clip0_352_1401">
<rect width="30.363" height="30.363" rx="15.1815" fill="white"/>
</clipPath>
</defs>
</svg>
