<svg width="31" height="31" viewBox="0 0 31 31" fill="none" xmlns="http://www.w3.org/2000/svg">
<path d="M24.0374 7.59076C22.9831 7.59076 22.087 7.22176 21.349 6.48377C20.611 5.74578 20.242 4.84965 20.242 3.79538C20.242 2.74111 20.611 1.84498 21.349 1.10699C22.087 0.368995 22.9831 0 24.0374 0C25.0917 0 25.9878 0.368995 26.7258 1.10699C27.4638 1.84498 27.8328 2.74111 27.8328 3.79538C27.8328 4.84965 27.4638 5.74578 26.7258 6.48377C25.9878 7.22176 25.0917 7.59076 24.0374 7.59076ZM2.53027 27.8328V5.0605C2.53027 4.36468 2.77824 3.76923 3.27417 3.27415C3.7701 2.77906 4.36555 2.5311 5.06053 2.53025H17.8383C17.754 2.95196 17.7118 3.37367 17.7118 3.79538C17.7118 4.21709 17.754 4.63879 17.8383 5.0605C18.1335 6.53648 18.8609 7.7489 20.0206 8.69774C21.1803 9.64658 22.5193 10.121 24.0374 10.121C24.7121 10.121 25.3763 10.0156 26.03 9.80473C26.6836 9.59387 27.2846 9.27759 27.8328 8.85588V20.242C27.8328 20.9378 27.5853 21.5337 27.0902 22.0296C26.5951 22.5256 25.9992 22.7731 25.3025 22.7723H7.59078L2.53027 27.8328Z" fill="black"/>
</svg>
