<svg width="65" height="65" viewBox="0 0 65 65" fill="none" xmlns="http://www.w3.org/2000/svg">
<path d="M21.1248 5.41699H43.8748C52.5415 5.41699 59.5832 12.4587 59.5832 21.1253V43.8753C59.5832 48.0414 57.9282 52.0369 54.9823 54.9828C52.0364 57.9287 48.0409 59.5837 43.8748 59.5837H21.1248C12.4582 59.5837 5.4165 52.542 5.4165 43.8753V21.1253C5.4165 16.9592 7.07148 12.9637 10.0174 10.0179C12.9633 7.07197 16.9587 5.41699 21.1248 5.41699ZM20.5832 10.8337C17.9973 10.8337 15.5174 11.8609 13.6889 13.6894C11.8604 15.5178 10.8332 17.9978 10.8332 20.5837V44.417C10.8332 49.8066 15.1936 54.167 20.5832 54.167H44.4165C47.0024 54.167 49.4823 53.1398 51.3108 51.3113C53.1393 49.4828 54.1665 47.0028 54.1665 44.417V20.5837C54.1665 15.1941 49.8061 10.8337 44.4165 10.8337H20.5832ZM46.7186 14.8962C47.6165 14.8962 48.4776 15.2528 49.1124 15.8877C49.7473 16.5226 50.104 17.3837 50.104 18.2816C50.104 19.1794 49.7473 20.0405 49.1124 20.6754C48.4776 21.3103 47.6165 21.667 46.7186 21.667C45.8207 21.667 44.9596 21.3103 44.3247 20.6754C43.6898 20.0405 43.3332 19.1794 43.3332 18.2816C43.3332 17.3837 43.6898 16.5226 44.3247 15.8877C44.9596 15.2528 45.8207 14.8962 46.7186 14.8962ZM32.4998 18.9587C36.0913 18.9587 39.5357 20.3854 42.0752 22.9249C44.6148 25.4645 46.0415 28.9089 46.0415 32.5003C46.0415 36.0918 44.6148 39.5362 42.0752 42.0757C39.5357 44.6153 36.0913 46.042 32.4998 46.042C28.9084 46.042 25.464 44.6153 22.9244 42.0757C20.3849 39.5362 18.9582 36.0918 18.9582 32.5003C18.9582 28.9089 20.3849 25.4645 22.9244 22.9249C25.464 20.3854 28.9084 18.9587 32.4998 18.9587ZM32.4998 24.3753C30.345 24.3753 28.2783 25.2313 26.7546 26.7551C25.2309 28.2788 24.3748 30.3454 24.3748 32.5003C24.3748 34.6552 25.2309 36.7218 26.7546 38.2456C28.2783 39.7693 30.345 40.6253 32.4998 40.6253C34.6547 40.6253 36.7213 39.7693 38.2451 38.2456C39.7688 36.7218 40.6248 34.6552 40.6248 32.5003C40.6248 30.3454 39.7688 28.2788 38.2451 26.7551C36.7213 25.2313 34.6547 24.3753 32.4998 24.3753Z" fill="#974713"/>
</svg>
