<svg width="260" height="60" viewBox="0 0 260 60" fill="none" xmlns="http://www.w3.org/2000/svg">
<path d="M30 0.5H230C246.292 0.500003 259.5 13.7076 259.5 30C259.5 46.2924 246.292 59.5 230 59.5H30C13.7076 59.5 0.5 46.2924 0.5 30C0.5 13.7076 13.7076 0.500001 30 0.5Z" fill="white" stroke="#974713"/>
<path d="M195.707 30.7071C196.098 30.3166 196.098 29.6834 195.707 29.2929L189.343 22.9289C188.953 22.5384 188.319 22.5384 187.929 22.9289C187.538 23.3195 187.538 23.9526 187.929 24.3431L193.586 30L187.929 35.6569C187.538 36.0474 187.538 36.6805 187.929 37.0711C188.319 37.4616 188.953 37.4616 189.343 37.0711L195.707 30.7071ZM171 30V31L195 31V30V29L171 29V30Z" fill="#974713"/>
</svg>
