<svg width="187" height="74" viewBox="0 0 187 74" fill="none" xmlns="http://www.w3.org/2000/svg">
<path d="M48.1045 0.00019236C49.3258 0.0146093 50.3428 0.812561 51.1642 2.01579C51.9042 3.09995 52.6079 4.68073 53.2773 6.85856C56.3755 8.77601 59.5359 11.4387 62.6396 15.0533L62.961 15.4315L63.016 15.4968L63.0615 15.5693C64.851 18.4248 66.7862 23.0563 66.6507 27.667C66.5822 29.9959 65.9832 32.353 64.5358 34.4523C63.2303 36.3458 61.2812 37.9612 58.5594 39.1603C59.5869 45.5008 59.4735 56.5675 59.038 62.6921C59.5819 63.4944 60.2952 64.5694 60.9053 65.5412C61.2563 66.1003 61.5828 66.6403 61.8247 67.0795C61.9445 67.297 62.0547 67.5092 62.1379 67.6969C62.1793 67.7902 62.2225 67.8962 62.2573 68.005C62.2848 68.0912 62.34 68.2777 62.34 68.5002C62.34 68.9006 62.1608 69.1953 62.0806 69.3159C61.9787 69.4692 61.8584 69.6001 61.7503 69.7042C61.5305 69.9158 61.25 70.1235 60.9413 70.3163C60.3174 70.7059 59.4639 71.1043 58.4648 71.382C56.4636 71.9381 53.7565 72.039 51.1281 70.4546L50.942 70.3424L50.8061 70.172C50.1746 69.3789 49.2455 68.0979 48.4974 66.8105C48.1242 66.1683 47.7775 65.4938 47.5384 64.8579C47.5102 64.7828 47.482 64.7052 47.4551 64.6257C47.1614 64.9155 46.8694 65.1915 46.5959 65.4426L48.5311 68.4473L48.5423 68.4652L48.553 68.4824C49.0014 69.2333 49.3487 70.5637 48.4838 71.7768C47.7893 72.7508 46.5114 73.3413 44.6672 73.5745C43.7367 74.0754 42.6919 74.0734 41.7528 73.8779C40.7593 73.671 39.741 73.2211 38.7965 72.6935C37.1881 71.7949 35.6316 70.5763 34.5201 69.5801C34.1939 69.7565 33.8466 69.8497 33.5375 69.9055C33.2952 69.9491 33.0328 69.9765 32.7563 69.9939C32.1893 71.561 30.7221 72.4425 29.1364 72.8906C27.2149 73.4333 24.7532 73.4777 22.2801 73.2842C17.3111 72.8954 11.7992 71.5022 9.27247 70.5502L9.20688 70.5259L9.14483 70.4938C4.23977 67.9664 1.81166 63.4285 0.742142 58.8609C-0.324545 54.3052 -0.0778963 49.589 0.465598 46.4082L0.554234 45.9178C0.580065 45.7817 0.607153 45.6482 0.634006 45.5182C1.14239 40.4709 4.15875 35.3032 7.62088 30.9935C10.9611 26.8356 14.8443 23.3193 17.6887 21.2741C18.3455 18.3488 19.7864 14.8007 21.3411 11.9269C19.8036 8.52058 20.4221 4.86335 20.9618 3.34507L21.0356 3.13728L21.1775 2.96867L21.3323 2.79175C22.113 1.92992 23.0097 1.41869 23.9908 1.29445C25.0167 1.16465 25.9588 1.48051 26.7361 1.93683C27.847 2.58911 28.7895 3.62573 29.4714 4.5853C32.8145 2.94507 38.1501 1.78677 44.3103 3.14737C44.6066 2.54235 44.9748 1.93568 45.4129 1.42209C46.0142 0.717277 46.9234 -0.0136056 48.1045 0.00019236ZM24.2933 3.70723C24.0055 3.74367 23.6236 3.89477 23.173 4.37395C22.7579 5.73147 22.3749 8.77752 23.7721 11.3849L24.0894 11.9762L23.7597 12.5604C22.0892 15.5224 20.5334 19.3517 19.9602 22.2305L19.8645 22.7132L19.4615 22.9928C16.7875 24.849 12.8635 28.34 9.50469 32.521C6.12465 36.7286 3.45499 41.4649 3.03545 45.8192L3.03013 45.875L3.02009 45.9297L2.85109 46.8196L2.7595 47.3907C2.32225 50.325 2.18666 54.4113 3.09809 58.3041C4.06272 62.4236 6.16304 66.1959 10.1884 68.2971C12.5356 69.1694 17.7698 70.4919 22.468 70.8595C24.8505 71.0459 26.9726 70.9757 28.4811 70.5496C29.9309 70.14 30.4718 69.5283 30.5658 68.7947C30.5129 68.4317 30.2471 67.8082 29.4035 67.3092C28.5341 66.7951 26.9757 66.3762 24.3323 66.6847L23.7887 66.7565C23.4247 66.8098 23.0425 66.876 22.6417 66.9566L22.5407 66.9768L22.4385 66.9797C21.8841 66.9955 21.1343 67.0145 20.703 67.0201C20.5962 67.0215 20.4993 67.0226 20.4276 67.0219C20.3968 67.0216 20.3477 67.0207 20.3 67.0177C20.2944 67.0174 20.2082 67.0134 20.1091 66.9922C20.0795 66.9859 20.0155 66.9708 19.9377 66.9417C19.9044 66.9293 19.6645 66.8459 19.4567 66.6128C19.332 66.4728 19.175 66.2275 19.1512 65.8861C19.1272 65.5387 19.2529 65.2644 19.3728 65.0953C19.5674 64.8213 19.8196 64.7115 19.8509 64.697C19.983 64.6356 20.0986 64.6127 20.1097 64.6103C20.1466 64.6024 20.1773 64.5979 20.1936 64.5955C20.2275 64.5904 20.2582 64.5872 20.2769 64.5854C20.3172 64.5813 20.3636 64.5773 20.4105 64.5741C20.5071 64.5674 20.6455 64.5593 20.8288 64.5497L21.8795 64.4868C22.1109 64.4708 22.3207 64.4534 22.5076 64.4381C23.3877 64.0316 24.3029 63.0516 24.9788 61.5486C25.6796 59.9898 26.053 58.0109 25.8775 55.9542C25.5334 51.9236 23.08 47.5414 16.6346 45.4743C15.8251 45.287 15.3685 45.1702 15.1325 45.0967C15.0738 45.0784 14.9949 45.0525 14.9174 45.0195C14.8853 45.0059 14.802 44.9698 14.7094 44.9097C14.666 44.8815 14.5685 44.8149 14.4689 44.7061C14.3907 44.6205 14.1487 44.3335 14.1486 43.8802C14.1488 43.3379 14.4811 43.0074 14.6816 42.8709C14.8613 42.7488 15.0292 42.7058 15.0894 42.6916C15.2263 42.6595 15.3405 42.6587 15.3712 42.6584C15.4148 42.658 15.4561 42.6596 15.4912 42.662L15.5751 42.6697L15.6537 42.678L15.7305 42.6964C16.2813 42.8306 16.8125 42.9796 17.3236 43.1423L17.6687 43.2551C24.8469 45.6696 27.8686 50.8221 28.289 55.7464C28.4993 58.2103 28.0581 60.6062 27.184 62.5502C26.9302 63.1147 26.6314 63.6533 26.2947 64.1508C28.1407 64.1854 29.5638 64.5821 30.6314 65.2135C31.6366 65.808 32.288 66.593 32.6481 67.39L33.1959 67.2795C33.1682 67.1474 33.1242 66.9782 33.0553 66.7654C32.8383 66.0964 32.4519 65.199 31.8829 63.9768L31.2524 62.6422C31.249 62.635 31.2452 62.6275 31.2418 62.6202C30.9989 62.1154 30.396 60.9235 29.8431 60.0151C29.7063 59.7903 29.5894 59.5937 29.5287 59.4641C29.5182 59.4415 29.5016 59.4052 29.485 59.3614C29.4752 59.3355 29.4337 59.2267 29.4141 59.0836C29.4055 59.0203 29.384 58.8384 29.4401 58.6163C29.5061 58.3556 29.716 57.9422 30.213 57.7668C30.616 57.6246 30.9493 57.7405 31.0509 57.7798C31.1817 57.8304 31.2746 57.8926 31.3151 57.9211C31.4472 58.0145 31.5387 58.1221 31.5455 58.1301C31.5752 58.1637 31.6022 58.1969 31.6217 58.2215C31.6901 58.308 31.7865 58.4403 31.8865 58.5813L32.1742 58.9951L32.2274 59.0723L32.2682 59.1572C32.6951 60.0481 33.0868 60.8605 33.4352 61.5908L34.0675 62.9295C34.6532 64.187 35.0953 65.2054 35.3569 66.012C35.5 66.4535 35.6094 66.8946 35.6446 67.3169C36.6545 68.283 38.3113 69.64 39.9724 70.568C40.8052 71.0332 41.583 71.3589 42.2439 71.4966C42.2776 71.5036 42.3114 71.5079 42.3437 71.5138C42.1465 71.1174 41.9584 70.7305 41.8125 70.4042C41.727 70.2129 41.6479 70.0261 41.5874 69.8627C41.5483 69.7572 41.4481 69.489 41.4355 69.2168C41.4318 69.1367 41.4298 68.9632 41.4934 68.7608C41.5623 68.542 41.7478 68.1833 42.1771 67.9955C42.5737 67.8223 42.925 67.9092 43.0794 67.9629C43.2435 68.02 43.363 68.0994 43.4233 68.1428C43.6307 68.2921 43.8099 68.5113 43.922 68.6522C44.5611 69.4547 44.9436 70.3012 45.1588 71.0252C46.0735 70.8113 46.4123 70.5072 46.5167 70.3608C46.6189 70.2173 46.6335 69.9994 46.4807 69.7398L43.1716 64.6014L43.0457 64.4067L43.0008 64.1793L41.4881 56.58L41.5058 56.5758C41.4794 56.5009 41.4645 56.4224 41.4645 56.3413C41.4646 55.8378 42.0064 55.4294 42.6746 55.4294C43.2347 55.4294 43.7043 55.7169 43.8423 56.1062L43.8612 56.1026L45.3 63.3338C45.7949 62.866 46.3227 62.3378 46.7791 61.8241C47.1775 61.3756 47.4895 60.9744 47.6814 60.6587C47.7776 60.5003 47.8212 60.3994 47.8368 60.3517C47.8552 60.2952 47.8158 60.3761 47.8433 60.5346C47.9582 60.1778 48.0799 59.8149 48.2026 59.4606C48.2185 59.4147 48.235 59.3687 48.251 59.3228L48.1825 59.3003C48.3243 58.873 48.649 57.9814 49.0322 57.1843C49.1212 56.9508 49.2057 56.7321 49.2833 56.5337L49.2697 56.5236C49.2817 56.5076 49.2942 56.4908 49.307 56.4737C49.3457 56.375 49.3821 56.2813 49.4169 56.1941L49.4967 56.2232C49.5946 56.0955 49.6922 55.9715 49.7614 55.8895C49.7702 55.879 49.8596 55.7692 49.9682 55.6793C49.9817 55.6681 50.1163 55.5515 50.3198 55.4751C50.4099 55.4413 50.7236 55.3319 51.1086 55.4537C51.6102 55.6124 51.8465 56.0228 51.9206 56.3211C51.9798 56.5606 51.9497 56.7555 51.9389 56.8198C51.9244 56.9055 51.9042 56.9728 51.8922 57.0086C51.8681 57.0805 51.8418 57.1363 51.8301 57.1606C51.7672 57.2916 51.649 57.4711 51.5477 57.6237C51.5073 57.6845 51.4663 57.7531 51.4242 57.8273L49.6166 63.2757C49.618 63.3093 49.6229 63.362 49.6367 63.4366C49.6636 63.5817 49.7167 63.7692 49.8027 63.9982C49.9758 64.4583 50.2498 65.0034 50.5875 65.5845C51.2096 66.6551 51.9877 67.7442 52.5587 68.477C53.7207 69.1294 54.9035 69.3476 55.9949 69.3171C55.7591 68.9918 55.4414 68.5622 55.0299 68.0288C54.8166 67.7523 54.646 67.5275 54.5678 67.3983C54.5558 67.3784 54.5202 67.3187 54.4863 67.2415C54.472 67.209 54.431 67.1135 54.4053 66.9851C54.3924 66.9204 54.3723 66.7954 54.3858 66.6389C54.3993 66.484 54.4545 66.2039 54.6789 65.9449C55.1966 65.3477 55.887 65.5611 55.9588 65.584C56.1213 65.6356 56.2347 65.7105 56.2649 65.7306C56.3459 65.7844 56.4047 65.8381 56.4203 65.8523C56.493 65.9182 56.5695 66.0033 56.6112 66.0494C56.7175 66.1672 56.8714 66.3444 57.0348 66.5362L57.5188 67.1103L57.5732 67.1757L57.6181 67.2475L58.5747 68.7858C59.015 68.6144 59.3856 68.4251 59.6638 68.2514C59.6738 68.2452 59.6831 68.2379 59.6927 68.2318C59.4848 67.8564 59.1931 67.3716 58.8584 66.8384C58.1764 65.752 57.3535 64.5198 56.8044 63.7174L56.5627 63.3635L56.5952 62.9355C57.0777 56.6339 57.1861 44.5533 56.0102 38.6456L55.8093 37.6363L56.7672 37.2706C59.6023 36.1881 61.4179 34.7034 62.5456 33.0678C63.6759 31.4285 64.1739 29.552 64.2315 27.5952C64.3469 23.6689 62.6811 19.5542 61.0554 16.9348C48.3605 1.91554 35.0545 4.20709 29.9187 7.09189C29.8474 7.16119 29.7471 7.2437 29.6144 7.31037C29.4758 7.37996 29.2695 7.44942 29.0158 7.43801C28.7504 7.42604 28.5181 7.32924 28.3398 7.19459C28.1059 7.01782 27.9933 6.80081 27.9422 6.67392C27.379 5.71929 26.4702 4.59712 25.5147 4.03613C25.0368 3.75563 24.6322 3.66439 24.2933 3.70723ZM83.2114 30.8154C83.7923 30.8154 84.5961 30.9123 85.6223 31.1069C86.6485 31.3014 87.5878 31.632 88.4398 32.0989L87.278 34.8133C86.3486 34.5215 85.6126 34.3167 85.0704 34.2C84.5283 34.0639 83.87 33.9958 83.0956 33.9958C81.5273 33.9958 80.317 34.6379 79.4651 35.9217C78.6131 37.2057 78.1869 38.9666 78.1869 41.2038C78.187 43.1298 78.5454 44.7932 79.2618 46.1939C79.9782 47.5944 81.1784 48.2949 82.8628 48.2949C83.6954 48.2949 84.4704 48.207 85.1868 48.0319C85.9225 47.8569 86.5904 47.643 87.1906 47.3902L88.6141 50.1918C87.8589 50.5809 86.9484 50.8916 85.8835 51.1251C84.8187 51.3585 83.8798 51.4753 83.0666 51.4754C79.988 51.4754 77.751 50.4835 76.3569 48.4992C74.9628 46.5149 74.2657 44.0927 74.2657 41.2329C74.2657 38.1787 75.0306 35.6788 76.5602 33.7334C78.1092 31.788 80.3264 30.8154 83.2114 30.8154ZM97.0008 36.5344C98.6853 36.5344 100.128 37.0307 101.329 38.0228C102.529 38.9955 103.129 40.2409 103.129 41.7584V51.0669H101.183L100.254 49.8706C99.731 50.2791 99.1117 50.6393 98.3953 50.9505C97.6983 51.2618 97.0011 51.4172 96.3041 51.4172C94.5808 51.4172 93.3029 50.9986 92.4703 50.1621C91.6377 49.3061 91.2212 48.1974 91.2212 46.8356C91.2212 45.3766 91.7151 44.2582 92.7026 43.4801C93.69 42.7019 94.9776 42.3129 96.5653 42.3129H99.3248C99.3055 41.5931 99.0921 41.0384 98.6855 40.6493C98.2983 40.2409 97.7563 40.0367 97.0593 40.0366C96.401 40.0366 95.6841 40.1336 94.9096 40.3281C94.1352 40.5032 93.4865 40.7176 92.9637 40.9705L91.9474 37.8186C92.4895 37.449 93.3126 37.1472 94.4162 36.9138C95.539 36.661 96.4006 36.5345 97.0008 36.5344ZM123.916 36.5344C126.123 36.5344 127.741 37.274 128.767 38.7525C129.812 40.2115 130.335 41.943 130.335 43.9467V45.1139H120.837C121.012 46.0477 121.438 46.7969 122.116 47.3611C122.793 47.9057 123.684 48.178 124.788 48.178C125.427 48.178 125.998 48.1003 126.501 47.9447C127.024 47.7696 127.624 47.5262 128.302 47.215L129.406 49.9579C128.747 50.4637 127.943 50.8335 126.995 51.0669C126.065 51.3003 125.3 51.4172 124.7 51.4172C122.261 51.4171 120.334 50.7462 118.92 49.404C117.526 48.0616 116.829 46.2616 116.829 44.0049C116.829 41.7483 117.459 39.9391 118.717 38.5773C119.995 37.2156 121.728 36.5345 123.916 36.5344ZM137.187 37.352C137.749 37.0407 138.339 36.7974 138.959 36.6223C139.598 36.4472 140.169 36.3599 140.672 36.3599C142.744 36.3599 144.332 37.0795 145.436 38.5192C146.539 39.9588 147.091 41.7486 147.091 43.8885C147.091 46.0284 146.52 47.8183 145.378 49.2579C144.255 50.6975 142.686 51.4172 140.672 51.4172C140.014 51.4172 139.278 51.281 138.465 51.0087C137.652 50.7364 136.926 50.357 136.287 49.8706L135.357 51.0669H133.44V30.7863L137.187 30.4651V37.352ZM155.486 36.5344C157.171 36.5344 158.614 37.0307 159.814 38.0228C161.015 38.9955 161.615 40.2409 161.615 41.7584V51.0669H159.669L158.739 49.8706C158.217 50.2791 157.597 50.6393 156.881 50.9505C156.184 51.2618 155.487 51.4172 154.79 51.4172C153.066 51.4172 151.788 50.9986 150.956 50.1621C150.123 49.3061 149.707 48.1974 149.707 46.8356C149.707 45.3766 150.201 44.2582 151.188 43.4801C152.176 42.7019 153.463 42.3129 155.051 42.3129H157.81C157.791 41.5931 157.578 41.0384 157.171 40.6493C156.784 40.2409 156.242 40.0367 155.545 40.0366C154.887 40.0366 154.17 40.1336 153.395 40.3281C152.621 40.5032 151.972 40.7176 151.449 40.9705L150.433 37.8186C150.975 37.449 151.798 37.1472 152.902 36.9138C154.025 36.661 154.886 36.5345 155.486 36.5344ZM180.872 36.5344C182.556 36.5344 183.999 37.0307 185.2 38.0228C186.4 38.9955 187 40.2409 187 41.7584V51.0669H185.054L184.125 49.8706C183.602 50.2791 182.983 50.6393 182.266 50.9505C181.569 51.2618 180.872 51.4172 180.175 51.4172C178.452 51.4172 177.174 50.9986 176.341 50.1621C175.509 49.3061 175.092 48.1974 175.092 46.8356C175.092 45.3766 175.586 44.2582 176.573 43.4801C177.561 42.7019 178.848 42.3129 180.436 42.3129H183.196C183.176 41.5931 182.963 41.0384 182.556 40.6493C182.169 40.2409 181.627 40.0367 180.93 40.0366C180.272 40.0366 179.555 40.1336 178.78 40.3281C178.006 40.5032 177.357 40.7176 176.835 40.9705L175.818 37.8186C176.36 37.449 177.183 37.1472 178.287 36.9138C179.41 36.661 180.271 36.5345 180.872 36.5344ZM112.645 30.5814C113.09 30.5815 113.594 30.6694 114.155 30.8445C114.717 31.0195 115.153 31.2334 115.463 31.4862L114.388 34.2291C114.097 34.1124 113.817 34.0251 113.546 33.9667C113.294 33.8889 113.052 33.8503 112.819 33.8503C112.161 33.8503 111.677 34.0931 111.367 34.5794C111.076 35.0463 110.931 35.6497 110.931 36.389V37.2059H113.604L114.794 40.153H110.931V51.0669H107.156V40.153H104.977V37.2059H107.156V35.8636C107.156 34.2294 107.63 32.9455 108.579 32.0117C109.547 31.0585 110.902 30.5814 112.645 30.5814ZM168.313 38.9858C168.894 38.48 169.601 38.0132 170.433 37.5853C171.266 37.1378 172.06 36.9138 172.815 36.9138L173.57 39.9488C172.932 39.9488 172.186 40.1337 171.334 40.5033C170.501 40.8729 169.678 41.4179 168.865 42.1377V51.0669H165.089V36.9138H167.065L168.313 38.9858ZM96.5074 44.8515C95.8491 44.8515 95.336 45.0557 94.9681 45.4642C94.6196 45.8727 94.4452 46.3299 94.4451 46.8356C94.4451 47.2442 94.61 47.6139 94.9391 47.9447C95.2682 48.2558 95.7037 48.4113 96.2456 48.4113C96.7684 48.4113 97.2917 48.2951 97.8145 48.0616C98.3566 47.8282 98.8698 47.4777 99.3538 47.0108V44.8515H96.5074ZM154.993 44.8515C154.335 44.8515 153.822 45.0557 153.454 45.4642C153.105 45.8727 152.931 46.3299 152.931 46.8356C152.931 47.2442 153.096 47.6139 153.425 47.9447C153.754 48.2558 154.189 48.4113 154.731 48.4113C155.254 48.4113 155.777 48.2951 156.3 48.0616C156.842 47.8282 157.355 47.4777 157.839 47.0108V44.8515H154.993ZM180.378 44.8515C179.72 44.8515 179.207 45.0557 178.839 45.4642C178.49 45.8727 178.316 46.3299 178.316 46.8356C178.316 47.2442 178.481 47.6139 178.81 47.9447C179.139 48.2558 179.575 48.4113 180.117 48.4113C180.639 48.4113 181.163 48.2951 181.685 48.0616C182.228 47.8282 182.741 47.4777 183.225 47.0108V44.8515H180.378ZM139.685 39.5985C139.278 39.5985 138.852 39.6768 138.407 39.8324C137.981 39.9686 137.574 40.1631 137.187 40.416V47.3611C137.574 47.5945 137.981 47.789 138.407 47.9447C138.852 48.1003 139.278 48.178 139.685 48.178C140.982 48.178 141.892 47.7112 142.415 46.7775C142.938 45.8242 143.199 44.8612 143.199 43.8885C143.199 42.7796 142.967 41.7872 142.502 40.9117C142.038 40.0364 141.098 39.5985 139.685 39.5985ZM123.829 39.7736C123.055 39.7736 122.406 40.017 121.883 40.5033C121.36 40.9702 121.021 41.6609 120.866 42.5753H126.762C126.569 41.6221 126.22 40.9216 125.717 40.4742C125.214 40.0073 124.584 39.7737 123.829 39.7736ZM56.5917 19.5607C57.9027 19.5607 59.0187 20.0639 59.4387 20.7671C59.5972 20.8843 59.7229 21.0305 59.8062 21.2046C60.2403 22.1124 59.3713 23.438 57.8657 24.1654C57.8599 24.1682 57.8537 24.1704 57.8479 24.1731C57.9583 26.1142 57.958 28.724 57.6305 31.0255C57.4454 32.3256 57.1447 33.6112 56.6508 34.637C56.1828 35.6087 55.4164 36.5897 54.1879 36.8479L54.0673 36.8705C53.7345 36.9262 53.414 36.9593 53.1071 36.975C52.2705 37.1288 51.4622 36.9941 50.8321 36.8022C50.1726 36.6013 49.6092 36.3088 49.2591 36.0719L49.1622 36.006L49.1309 35.974C49.0178 35.8965 48.9179 35.8204 48.8342 35.7484C48.7803 35.702 48.7179 35.6445 48.6587 35.5798C48.6309 35.5493 48.585 35.4972 48.5382 35.4296C48.5149 35.3959 48.4776 35.3386 48.4413 35.2645C48.4131 35.207 48.3392 35.049 48.3196 34.8317C48.2982 34.5943 48.3392 34.1101 48.7781 33.7631C49.1457 33.4726 49.5349 33.4963 49.6503 33.5078C49.9012 33.5329 50.0841 33.6341 50.1059 33.6455C50.2163 33.7033 50.3065 33.7708 50.3541 33.8076C50.4377 33.8722 50.5296 33.9547 50.6306 34.0498C51.0073 34.2697 51.7783 34.594 52.9145 34.5503L53.0935 34.5408C53.2757 34.5279 53.4682 34.5057 53.6696 34.4719L53.7335 34.4559C53.8986 34.4007 54.1684 34.2084 54.4721 33.5778C54.8081 32.8799 55.0639 31.8784 55.2344 30.6812C55.5186 28.684 55.5337 26.3744 55.4447 24.5768C55.16 24.5208 54.9107 24.419 54.7138 24.2717C54.635 24.2384 54.556 24.2033 54.4774 24.1654C53.267 23.5807 52.4687 22.6093 52.4276 21.7793C52.381 21.6522 52.3561 21.5201 52.356 21.3845C52.3563 20.3774 53.7107 19.5607 55.3815 19.5607C55.4834 19.5607 55.5842 19.5637 55.6834 19.5696C55.7831 19.5636 55.8843 19.5607 55.9866 19.5607C56.0885 19.5607 56.1892 19.5637 56.2885 19.5696C56.3882 19.5636 56.4894 19.5607 56.5917 19.5607ZM36.6238 16.521C37.6262 16.5211 38.4389 17.746 38.439 19.2567C38.439 20.7675 37.6262 21.9923 36.6238 21.9925C35.6212 21.9925 34.8085 20.7676 34.8085 19.2567C34.8086 17.7459 35.6213 16.521 36.6238 16.521ZM48.0761 2.43197C47.9563 2.43057 47.6703 2.51298 47.2506 3.00489C47.0591 3.22938 46.8758 3.49991 46.7064 3.79628C47.8135 4.15133 48.9409 4.59081 50.0828 5.12557C49.7641 4.38306 49.4574 3.81517 49.1681 3.39138C48.5454 2.47912 48.1558 2.43294 48.0761 2.43197Z" fill="white"/>
</svg>
