<svg width="217" height="86" viewBox="0 0 217 86" fill="none" xmlns="http://www.w3.org/2000/svg">
<path d="M65.6706 22.7327C67.192 22.7327 68.487 23.3175 68.9743 24.1347C69.1583 24.271 69.3041 24.4409 69.4008 24.6432C69.9045 25.6982 68.8962 27.2388 67.1489 28.0841C67.1422 28.0873 67.1351 28.0899 67.1284 28.0931C67.2564 30.349 67.2562 33.3819 66.876 36.0567C66.6613 37.5676 66.3123 39.0617 65.7391 40.2538C65.1961 41.3831 64.3067 42.5232 62.8811 42.8232L62.7412 42.8495C62.355 42.9142 61.9831 42.9527 61.627 42.9709C60.6562 43.1497 59.7182 42.9931 58.987 42.7701C58.2217 42.5367 57.5679 42.1968 57.1616 41.9215L57.0492 41.8449L57.0129 41.8076C56.8816 41.7175 56.7657 41.6291 56.6686 41.5454C56.6061 41.4915 56.5336 41.4247 56.465 41.3495C56.4327 41.3141 56.3794 41.2535 56.3251 41.1749C56.2981 41.1358 56.2548 41.0692 56.2126 40.9831C56.18 40.9163 56.0942 40.7328 56.0714 40.4801C56.0465 40.2043 56.094 39.6416 56.6035 39.2382C57.0301 38.9006 57.4817 38.9281 57.6156 38.9415C57.9069 38.9708 58.1192 39.0884 58.1443 39.1015C58.2724 39.1687 58.3771 39.2472 58.4323 39.2899C58.5293 39.365 58.636 39.4609 58.7532 39.5714C59.1904 39.8269 60.0851 40.2039 61.4034 40.1531L61.6112 40.142C61.8226 40.1271 62.046 40.1012 62.2797 40.062L62.3538 40.0434C62.5455 39.9792 62.8585 39.7558 63.2109 39.0229C63.6009 38.2118 63.8977 37.048 64.0955 35.6565C64.4253 33.3355 64.4428 30.6514 64.3396 28.5622C64.01 28.4973 63.7217 28.3789 63.4934 28.2083C63.4014 28.1695 63.3089 28.1285 63.2171 28.0841C61.8125 27.4046 60.8862 26.2757 60.8384 25.3111C60.7844 25.1634 60.7554 25.0098 60.7554 24.8523C60.7555 23.6817 62.3273 22.7327 64.2662 22.7327C64.3844 22.7327 64.5014 22.7361 64.6166 22.743C64.7322 22.7361 64.8498 22.7327 64.9684 22.7327C65.0866 22.7327 65.2036 22.7361 65.3188 22.743C65.4344 22.7361 65.5519 22.7327 65.6706 22.7327Z" fill="#0A0A0A"/>
<path d="M42.4992 19.2C43.6625 19.2002 44.6057 20.6236 44.6057 22.3794C44.6057 24.1352 43.6625 25.5586 42.4992 25.5588C41.3359 25.5588 40.3928 24.1353 40.3928 22.3794C40.3928 20.6235 41.3359 19.2 42.4992 19.2Z" fill="#0A0A0A"/>
<path fill-rule="evenodd" clip-rule="evenodd" d="M55.8218 0.000223567C57.239 0.0170001 58.4192 0.944344 59.3724 2.34267C60.2311 3.60267 61.0477 5.43977 61.8244 7.97076C65.4197 10.1992 69.0871 13.2936 72.6887 17.4944L73.0618 17.9339L73.1255 18.0098L73.1783 18.094C75.2549 21.4127 77.5006 26.7951 77.3433 32.1535C77.2638 34.8602 76.5688 37.5994 74.8892 40.0392C73.3742 42.2397 71.1124 44.1171 67.9539 45.5107C69.1463 52.8794 69.0147 65.7407 68.5094 72.8584C69.1405 73.7909 69.9683 75.0402 70.6762 76.1695C71.0835 76.8193 71.4624 77.4468 71.7431 77.9572C71.8822 78.2101 72.01 78.4567 72.1066 78.6748C72.1546 78.7833 72.2048 78.9064 72.2451 79.0329C72.277 79.133 72.3411 79.3498 72.3411 79.6083C72.3411 80.0739 72.1331 80.4162 72.0401 80.5564C71.9218 80.7346 71.7823 80.8866 71.6568 81.0076C71.4017 81.2535 71.0763 81.4949 70.718 81.719C69.9941 82.1718 69.0036 82.6348 67.8442 82.9575C65.522 83.6038 62.3805 83.721 59.3305 81.8797L59.1145 81.7493L58.9568 81.5513C58.224 80.6296 57.1459 79.1408 56.2778 77.6447C55.8447 76.8983 55.4424 76.1144 55.1649 75.3754C55.1321 75.2881 55.0995 75.198 55.0682 75.1056C54.7273 75.4424 54.3886 75.7631 54.0712 76.055L56.3169 79.5469L56.3299 79.5676L56.3422 79.5876C56.8626 80.4604 57.2657 82.0065 56.262 83.4163C55.4561 84.5482 53.9731 85.2345 51.833 85.5055C50.7533 86.0876 49.5409 86.0853 48.4511 85.8581C47.2983 85.6177 46.1165 85.0948 45.0206 84.4816C43.1541 83.4373 41.3479 82.0211 40.0581 80.8634C39.6796 81.0684 39.2765 81.1767 38.9178 81.2415C38.6367 81.2922 38.3322 81.3241 38.0113 81.3443C37.3534 83.1655 35.6508 84.19 33.8107 84.7107C31.5809 85.3415 28.7243 85.393 25.8545 85.1681C20.0884 84.7163 13.6922 83.0972 10.76 81.9908L10.6839 81.9625L10.6119 81.9253C4.91996 78.988 2.10233 73.7142 0.861219 68.406C-0.376636 63.1114 -0.0903791 57.6305 0.540309 53.9338L0.643165 53.3639C0.673148 53.2057 0.704563 53.0507 0.735735 52.8996C1.32562 47.0337 4.8259 41.0281 8.8435 36.0194C12.7196 31.1873 17.2258 27.1008 20.5265 24.7239C21.2886 21.3243 22.9607 17.2009 24.7649 13.861C22.9806 9.90227 23.6984 5.65203 24.3246 3.88752L24.4104 3.64603L24.5749 3.45008L24.7546 3.24447C25.6605 2.24282 26.701 1.64875 27.8396 1.50436C29.0301 1.35351 30.1233 1.72058 31.0253 2.25091C32.3145 3.00899 33.4082 4.21368 34.1995 5.32887C38.0789 3.42264 44.2704 2.07584 51.4189 3.65707C51.7627 2.95409 52.1901 2.24945 52.6984 1.6527C53.3962 0.833576 54.4512 -0.0158122 55.8218 0.000223567ZM28.1906 4.3084C27.8567 4.35075 27.4135 4.52627 26.8906 5.08324C26.4089 6.66094 25.9644 10.2009 27.5859 13.2311L27.9541 13.9183L27.5715 14.5972C25.6329 18.0396 23.8275 22.4898 23.1624 25.8355L23.0513 26.3964L22.5836 26.7214C19.4807 28.8786 14.9272 32.9357 11.0295 37.7947C7.10718 42.6847 4.00923 48.1889 3.52244 53.2494L3.51627 53.3142L3.50461 53.3777L3.3085 54.412L3.20221 55.0757C2.69482 58.4859 2.53743 63.2348 3.59512 67.7588C4.71451 72.5464 7.15177 76.9304 11.8229 79.3724C14.5467 80.3861 20.6207 81.923 26.0725 82.3503C28.8372 82.5669 31.2998 82.4853 33.0502 81.9901C34.7326 81.5141 35.3603 80.8031 35.4694 79.9506C35.4081 79.5288 35.0997 78.8042 34.1206 78.2243C33.1118 77.6268 31.3034 77.14 28.2359 77.4984L27.6051 77.5819C27.1827 77.6438 26.7392 77.7208 26.2741 77.8144L26.1568 77.8379L26.0382 77.8413C25.395 77.8596 24.5249 77.8817 24.0243 77.8882C23.9004 77.8899 23.788 77.8911 23.7048 77.8903C23.6691 77.89 23.6121 77.8889 23.5567 77.8855C23.5502 77.8851 23.4502 77.8804 23.3352 77.8558C23.3009 77.8485 23.2266 77.8309 23.1363 77.7972C23.0978 77.7828 22.8193 77.6858 22.5782 77.4149C22.4334 77.2522 22.2512 76.9672 22.2236 76.5704C22.1957 76.1665 22.3416 75.8478 22.4808 75.6514C22.7066 75.3328 22.9992 75.2053 23.0355 75.1884C23.1888 75.1171 23.323 75.0904 23.3359 75.0876C23.3787 75.0784 23.4143 75.0732 23.4332 75.0704C23.4726 75.0645 23.5082 75.0608 23.5299 75.0587C23.5766 75.054 23.6306 75.0493 23.6849 75.0456C23.797 75.0378 23.9576 75.0284 24.1704 75.0173L25.3895 74.9441C25.6581 74.9256 25.9016 74.9053 26.1184 74.8876C27.1397 74.4151 28.2017 73.2763 28.9861 71.5295C29.7994 69.7178 30.2327 67.4182 30.029 65.0279C29.6297 60.3436 26.7828 55.2509 19.3032 52.8485C18.364 52.6309 17.8341 52.4951 17.5602 52.4097C17.4921 52.3885 17.4005 52.3583 17.3106 52.32C17.2734 52.3042 17.1767 52.2622 17.0692 52.1924C17.0189 52.1597 16.9057 52.0822 16.7901 51.9557C16.6995 51.8564 16.4185 51.5228 16.4185 50.9959C16.4186 50.3656 16.8042 49.9817 17.037 49.823C17.2455 49.681 17.4403 49.631 17.5101 49.6146C17.669 49.5773 17.8015 49.5763 17.8372 49.576C17.8877 49.5755 17.9357 49.5774 17.9764 49.5801L18.0738 49.5891L18.165 49.5988L18.2541 49.6201C18.8933 49.7761 19.5097 49.9493 20.1028 50.1383L20.5032 50.2694C28.8331 53.0756 32.3396 59.0636 32.8274 64.7864C33.0714 67.6499 32.5595 70.4343 31.5451 72.6935C31.2505 73.3496 30.9038 73.9754 30.5131 74.5536C32.6553 74.5938 34.3067 75.0549 35.5455 75.7887C36.712 76.4796 37.468 77.3918 37.8858 78.3181L38.5215 78.1898C38.4893 78.0362 38.4383 77.8396 38.3583 77.5922C38.1065 76.8147 37.6581 75.7719 36.9978 74.3514L36.2662 72.8004C36.2622 72.792 36.2579 72.7833 36.2538 72.7749C35.972 72.1882 35.2724 70.803 34.6308 69.7473C34.472 69.486 34.3364 69.2575 34.266 69.107C34.2537 69.0807 34.2345 69.0385 34.2152 68.9876C34.2039 68.9577 34.1557 68.8313 34.133 68.6647C34.123 68.5913 34.098 68.38 34.1631 68.1217C34.2396 67.8187 34.4832 67.3383 35.06 67.1344C35.5277 66.9691 35.9145 67.1039 36.0324 67.1495C36.1841 67.2083 36.292 67.2806 36.3389 67.3138C36.4927 67.4226 36.599 67.5481 36.6063 67.5566C36.6407 67.5957 36.6721 67.6342 36.6947 67.6629C36.7741 67.7634 36.8859 67.9171 37.0019 68.081L37.3359 68.5619L37.3976 68.6516L37.4449 68.7503C37.9404 69.7857 38.3949 70.7298 38.7992 71.5785L39.5329 73.1343C40.2126 74.5958 40.7256 75.7792 41.0291 76.7167C41.1952 77.2298 41.3221 77.7424 41.363 78.2332C42.5349 79.356 44.4575 80.933 46.3851 82.0115C47.3514 82.5521 48.2541 82.9306 49.021 83.0906C49.06 83.0988 49.0993 83.1038 49.1369 83.1106C48.9079 82.65 48.6897 82.2003 48.5204 81.8211C48.4212 81.5988 48.3294 81.3817 48.2592 81.1918C48.2139 81.0693 48.0976 80.7576 48.0829 80.4411C48.0787 80.3482 48.0763 80.1465 48.1501 79.9112C48.2301 79.657 48.4452 79.2401 48.9435 79.0219C49.4038 78.8205 49.8113 78.9215 49.9906 78.9839C50.181 79.0503 50.3197 79.1425 50.3896 79.193C50.6302 79.3666 50.8382 79.6213 50.9684 79.785C51.7099 80.7177 52.1538 81.7014 52.4035 82.5428C53.465 82.2943 53.8582 81.9408 53.9793 81.7707C54.098 81.6039 54.1148 81.3507 53.9375 81.049L50.0975 75.0773L49.9515 74.851L49.8994 74.5867L48.144 65.7551L48.1645 65.7503C48.1339 65.6632 48.1165 65.5721 48.1165 65.4777C48.1166 64.8924 48.7453 64.4179 49.5208 64.4179C50.1708 64.418 50.7158 64.752 50.8758 65.2045L50.8977 65.2004L52.5674 73.6042C53.1417 73.0605 53.7541 72.4467 54.2837 71.8496C54.7461 71.3283 55.1081 70.8622 55.3308 70.4952C55.4425 70.3111 55.4931 70.1939 55.5112 70.1385C55.5327 70.0724 55.4868 70.1666 55.5187 70.351C55.652 69.9363 55.7932 69.5147 55.9356 69.1028C55.9541 69.0494 55.9732 68.9962 55.9918 68.9428L55.9123 68.9166C56.0768 68.42 56.4536 67.3839 56.8983 66.4575C57.0016 66.186 57.0997 65.9319 57.1898 65.7013L57.174 65.6896C57.1879 65.6709 57.2023 65.6515 57.2172 65.6316C57.2621 65.5169 57.3044 65.4081 57.3447 65.3066L57.4373 65.3404C57.551 65.192 57.6642 65.048 57.7445 64.9527C57.7541 64.9412 57.858 64.8132 57.9845 64.7084C57.9997 64.6958 58.1559 64.5601 58.3925 64.4711C58.497 64.4318 58.861 64.3047 59.3079 64.4462C59.8899 64.6307 60.1642 65.1075 60.2501 65.4543C60.3189 65.7327 60.2838 65.9594 60.2713 66.0339C60.2545 66.1335 60.231 66.2117 60.2171 66.2533C60.1891 66.337 60.1587 66.4017 60.1451 66.4299C60.072 66.5822 59.9349 66.7907 59.8174 66.9681C59.7709 67.0383 59.7232 67.1171 59.6748 67.2027L57.5765 73.5366C57.5782 73.5757 57.5838 73.6369 57.5998 73.7236C57.6311 73.8922 57.6926 74.1102 57.7925 74.3763C57.9933 74.9111 58.3113 75.5445 58.7031 76.2199C59.425 77.464 60.328 78.7298 60.9906 79.5814C62.339 80.3395 63.7115 80.5932 64.978 80.5577C64.7044 80.1797 64.3357 79.6805 63.8582 79.0605C63.6107 78.7391 63.4128 78.478 63.322 78.3278C63.3081 78.3048 63.2668 78.2354 63.2274 78.1456C63.2109 78.1079 63.1633 77.9969 63.1334 77.8475C63.1185 77.7725 63.0951 77.6273 63.1108 77.4453C63.1264 77.2652 63.1904 76.9398 63.4509 76.6387C64.0517 75.9445 64.853 76.1927 64.9362 76.2192C65.1248 76.2793 65.2564 76.3664 65.2914 76.3896C65.3854 76.4522 65.4537 76.5147 65.4717 76.5311C65.5561 76.6077 65.6448 76.7065 65.6932 76.7601C65.8166 76.897 65.9952 77.103 66.1848 77.3259L66.7464 77.9931L66.8095 78.069L66.8616 78.1525L67.9718 79.9402C68.4827 79.741 68.9127 79.5211 69.2355 79.3192C69.2471 79.312 69.2579 79.3036 69.2691 79.2965C69.0279 78.8601 68.6893 78.2967 68.3009 77.6771C67.5095 76.4146 66.5546 74.9825 65.9174 74.0499L65.637 73.6387L65.6747 73.1412C66.2345 65.8178 66.3604 51.7782 64.9958 44.9125L64.7627 43.7395L65.8742 43.3145C69.1642 42.0565 71.271 40.3309 72.5797 38.4302C73.8913 36.525 74.4692 34.3443 74.536 32.0701C74.67 27.5071 72.7369 22.7252 70.8504 19.6809C56.1181 2.22521 40.6769 4.88977 34.7179 8.24261C34.6351 8.32302 34.519 8.41857 34.3654 8.49583C34.2046 8.57671 33.9651 8.65742 33.6708 8.64418C33.3628 8.63027 33.0932 8.51773 32.8863 8.36129C32.6149 8.15588 32.4842 7.90366 32.4249 7.75618C31.7714 6.64675 30.7168 5.34264 29.608 4.69064C29.0534 4.36463 28.5839 4.25862 28.1906 4.3084ZM55.7889 2.82634C55.6499 2.82472 55.318 2.92044 54.8309 3.49216C54.6087 3.75304 54.3953 4.06683 54.1987 4.41121C55.4836 4.82385 56.7922 5.33449 58.1175 5.95605C57.7477 5.09343 57.3916 4.43375 57.056 3.94134C56.3335 2.88133 55.8815 2.8275 55.7889 2.82634Z" fill="#0A0A0A"/>
<path d="M96.5609 35.8118C97.2349 35.8118 98.1677 35.9251 99.3585 36.1512C100.549 36.3773 101.639 36.7616 102.628 37.3042L101.28 40.458C100.201 40.1189 99.3472 39.8816 98.7181 39.746C98.089 39.5877 97.3251 39.5086 96.4265 39.5086C94.6065 39.5086 93.2021 40.2548 92.2135 41.7469C91.2249 43.239 90.7303 45.285 90.7303 47.8849C90.7303 50.1231 91.1463 52.0563 91.9776 53.6841C92.8089 55.3118 94.2016 56.1258 96.1563 56.1259C97.1225 56.1259 98.0218 56.0244 98.8532 55.8209C99.7068 55.6175 100.482 55.3689 101.178 55.0751L102.83 58.3303C101.953 58.7825 100.897 59.1444 99.6616 59.4157C98.4258 59.6869 97.3358 59.8227 96.3922 59.8227C92.8197 59.8227 90.2244 58.6693 88.6067 56.3632C86.9891 54.0572 86.18 51.2426 86.18 47.9194C86.18 44.3699 87.0677 41.4645 88.8426 39.2037C90.6401 36.9428 93.213 35.8118 96.5609 35.8118Z" fill="#0A0A0A"/>
<path fill-rule="evenodd" clip-rule="evenodd" d="M112.562 42.4589C114.517 42.4589 116.191 43.0356 117.585 44.1887C118.978 45.3191 119.674 46.7659 119.674 48.5293V59.348H117.416L116.337 57.9578C115.731 58.4324 115.012 58.8505 114.181 59.2121C113.372 59.5738 112.563 59.7551 111.754 59.7551C109.754 59.7551 108.271 59.2686 107.305 58.2965C106.339 57.3018 105.856 56.0132 105.856 54.4306C105.856 52.7349 106.429 51.4346 107.575 50.5302C108.721 49.626 110.215 49.1737 112.057 49.1737H115.259C115.236 48.3374 114.989 47.6933 114.517 47.2411C114.068 46.7664 113.439 46.5284 112.63 46.5284C111.866 46.5284 111.035 46.6418 110.136 46.8679C109.237 47.0713 108.484 47.3198 107.878 47.6137L106.698 43.9513C107.327 43.5218 108.282 43.1711 109.563 42.8998C110.866 42.606 111.866 42.459 112.562 42.4589ZM111.99 52.124C111.226 52.124 110.631 52.362 110.204 52.8368C109.799 53.3116 109.597 53.8428 109.597 54.4306C109.597 54.9053 109.787 55.3352 110.169 55.7195C110.551 56.0812 111.057 56.2618 111.686 56.2618C112.293 56.2618 112.9 56.126 113.507 55.8547C114.136 55.5834 114.731 55.1767 115.293 54.6342V52.124H111.99Z" fill="#0A0A0A"/>
<path fill-rule="evenodd" clip-rule="evenodd" d="M143.796 42.4589C146.357 42.4589 148.234 43.3184 149.425 45.0367C150.638 46.7323 151.244 48.7446 151.244 51.0732V52.4297H140.223C140.425 53.5149 140.92 54.3856 141.706 55.0412C142.493 55.6742 143.526 55.9906 144.807 55.9906C145.548 55.9906 146.211 55.9003 146.796 55.7195C147.402 55.516 148.099 55.2332 148.885 54.8715L150.166 58.0592C149.402 58.647 148.469 59.0767 147.368 59.348C146.29 59.6193 145.402 59.7551 144.706 59.7551C141.875 59.7551 139.639 58.9747 137.999 57.4147C136.381 55.8547 135.572 53.7634 135.572 51.1408C135.572 48.5183 136.302 46.4157 137.763 44.8331C139.246 43.2505 141.257 42.459 143.796 42.4589ZM143.695 46.2234C142.796 46.2234 142.043 46.5062 141.437 47.0714C140.83 47.614 140.436 48.4168 140.257 49.4794H147.099C146.874 48.3717 146.47 47.5576 145.886 47.0376C145.301 46.495 144.571 46.2235 143.695 46.2234Z" fill="#0A0A0A"/>
<path fill-rule="evenodd" clip-rule="evenodd" d="M159.196 43.4083C159.847 43.0467 160.533 42.7645 161.252 42.5611C161.993 42.3576 162.656 42.2554 163.24 42.2554C165.644 42.2554 167.487 43.0919 168.768 44.7648C170.048 46.4378 170.689 48.5181 170.689 51.0049C170.689 53.4918 170.026 55.572 168.7 57.245C167.397 58.9181 165.577 59.7551 163.24 59.7551C162.476 59.7551 161.623 59.5969 160.679 59.2804C159.735 58.9639 158.892 58.5229 158.151 57.9578L157.072 59.348H154.848V35.778L159.196 35.4054V43.4083ZM162.094 46.0199C161.622 46.0199 161.128 46.1102 160.611 46.291C160.117 46.4493 159.645 46.6754 159.196 46.9693V55.0412C159.645 55.3125 160.117 55.5386 160.611 55.7195C161.128 55.9004 161.622 55.9906 162.094 55.9906C163.6 55.9906 164.656 55.4475 165.262 54.3623C165.869 53.2545 166.172 52.1353 166.172 51.0049C166.172 49.7164 165.903 48.5634 165.364 47.5461C164.824 46.5287 163.734 46.0199 162.094 46.0199Z" fill="#0A0A0A"/>
<path fill-rule="evenodd" clip-rule="evenodd" d="M180.431 42.4589C182.386 42.4589 184.06 43.0356 185.453 44.1887C186.846 45.3191 187.542 46.7659 187.542 48.5293V59.348H185.284L184.206 57.9578C183.599 58.4324 182.88 58.8505 182.049 59.2121C181.24 59.5738 180.431 59.7551 179.622 59.7551C177.623 59.7551 176.14 59.2686 175.173 58.2965C174.207 57.3018 173.724 56.0132 173.724 54.4306C173.724 52.7349 174.297 51.4346 175.443 50.5302C176.589 49.626 178.083 49.1737 179.925 49.1737H183.127C183.104 48.3374 182.857 47.6933 182.386 47.2411C181.936 46.7664 181.307 46.5284 180.499 46.5284C179.735 46.5284 178.903 46.6418 178.004 46.8679C177.105 47.0713 176.353 47.3198 175.746 47.6137L174.567 43.9513C175.196 43.5218 176.151 43.1711 177.431 42.8998C178.734 42.606 179.734 42.459 180.431 42.4589ZM179.858 52.124C179.094 52.124 178.499 52.362 178.072 52.8368C177.667 53.3116 177.465 53.8428 177.465 54.4306C177.465 54.9053 177.656 55.3352 178.038 55.7195C178.42 56.0812 178.925 56.2618 179.554 56.2618C180.161 56.2618 180.768 56.126 181.375 55.8547C182.004 55.5834 182.6 55.1767 183.161 54.6342V52.124H179.858Z" fill="#0A0A0A"/>
<path fill-rule="evenodd" clip-rule="evenodd" d="M209.889 42.4589C211.843 42.4589 213.518 43.0356 214.911 44.1887C216.304 45.3191 217 46.7659 217 48.5293V59.348H214.742L213.663 57.9578C213.057 58.4324 212.338 58.8505 211.507 59.2121C210.698 59.5738 209.889 59.7551 209.08 59.7551C207.08 59.7551 205.597 59.2686 204.631 58.2965C203.665 57.3018 203.182 56.0132 203.182 54.4306C203.182 52.7349 203.755 51.4346 204.901 50.5302C206.047 49.626 207.541 49.1737 209.383 49.1737H212.585C212.562 48.3374 212.315 47.6933 211.844 47.2411C211.394 46.7664 210.765 46.5284 209.956 46.5284C209.192 46.5284 208.361 46.6418 207.462 46.8679C206.563 47.0713 205.81 47.3198 205.204 47.6137L204.024 43.9513C204.654 43.5218 205.609 43.1711 206.889 42.8998C208.192 42.606 209.192 42.459 209.889 42.4589ZM209.316 52.124C208.552 52.124 207.957 52.362 207.53 52.8368C207.125 53.3116 206.923 53.8428 206.923 54.4306C206.923 54.9053 207.114 55.3352 207.495 55.7195C207.877 56.0812 208.383 56.2618 209.012 56.2618C209.619 56.2618 210.226 56.126 210.833 55.8547C211.462 55.5834 212.057 55.1767 212.619 54.6342V52.124H209.316Z" fill="#0A0A0A"/>
<path d="M130.716 35.5406C131.233 35.5406 131.818 35.6428 132.469 35.8463C133.121 36.0497 133.626 36.2983 133.986 36.5921L132.739 39.7798C132.402 39.6441 132.075 39.5426 131.761 39.4748C131.469 39.3845 131.188 39.3389 130.919 39.3389C130.155 39.3389 129.593 39.6216 129.233 40.1869C128.896 40.7294 128.728 41.4302 128.728 42.2892V43.2393H131.829L133.21 46.6643H128.728V59.348H124.346V46.6643H121.819V43.2393H124.346V41.6793C124.346 39.7801 124.897 38.288 125.998 37.2027C127.122 36.0949 128.694 35.5406 130.716 35.5406Z" fill="#0A0A0A"/>
<path d="M195.315 45.3078C195.989 44.72 196.809 44.1776 197.776 43.6802C198.742 43.1602 199.663 42.8998 200.54 42.8998L201.416 46.427C200.675 46.427 199.809 46.6418 198.821 47.0714C197.854 47.5009 196.899 48.1337 195.956 48.9702V59.348H191.574V42.8998H193.866L195.315 45.3078Z" fill="#0A0A0A"/>
</svg>
